HIERARCHY
ROOT Hips
{
    OFFSET 12.471525192260742 89.52161407470703 -17.837425231933594
    CHANNELS 6 Xposition Yposition Zposition Zrotation Xrotation Yrotation
    JOINT RightUpLeg
    {
        OFFSET -12.471525192260742 0.0 0.0
        CHANNELS 3 Zrotation Xrotation Yrotation
        JOINT RightLeg
        {
            OFFSET 0.0 -44.92804718017578 0.0
            CHANNELS 3 Zrotation Xrotation Yrotation
            JOINT RightFoot
            {
                OFFSET 0.0 -44.59356689453125 0.0
                CHANNELS 3 Zrotation Xrotation Yrotation
                End Site
                {
                    OFFSET 0.0 0.0 17.837425231933594
                }
            }
        }
    }
    JOINT LeftUpLeg
    {
        OFFSET 12.471525192260742 0.0 0.0
        CHANNELS 3 Zrotation Xrotation Yrotation
        JOINT LeftLeg
        {
            OFFSET 0.0 -44.92804718017578 0.0
            CHANNELS 3 Zrotation Xrotation Yrotation
            JOINT LeftFoot
            {
                OFFSET 0.0 -44.59356689453125 0.0
                CHANNELS 3 Zrotation Xrotation Yrotation
                End Site
                {
                    OFFSET 0.0 0.0 17.837425231933594
                }
            }
        }
    }
    JOINT Spine
    {
        OFFSET 0.0 23.986068725585938 0.0
        CHANNELS 3 Zrotation Xrotation Yrotation
        JOINT Spine3
        {
            OFFSET 0.0 24.53854751586914 0.0
            CHANNELS 3 Zrotation Xrotation Yrotation
            JOINT Neck
            {
                OFFSET 0.0 11.394979476928711 0.0
                CHANNELS 3 Zrotation Xrotation Yrotation
                End Site
                {
                    OFFSET 0.0 4.557991981506348 0.0
                }
            }
            JOINT LeftArm
            {
                OFFSET 13.02663803100586 0.0 0.0
                CHANNELS 3 Zrotation Xrotation Yrotation
                JOINT LeftForeArm
                {
                    OFFSET 27.78725814819336 0.0 0.0
                    CHANNELS 3 Zrotation Xrotation Yrotation
                    JOINT LeftHand
                    {
                        OFFSET 19.34823989868164 0.0 0.0
                        CHANNELS 3 Zrotation Xrotation Yrotation
                        End Site
                        {
                            OFFSET 7.7392964363098145 0.0 0.0
                        }
                    }
                }
            }
            JOINT RightArm
            {
                OFFSET -13.02663803100586 0.0 0.0
                CHANNELS 3 Zrotation Xrotation Yrotation
                JOINT RightForeArm
                {
                    OFFSET -27.78725814819336 0.0 0.0
                    CHANNELS 3 Zrotation Xrotation Yrotation
                    JOINT RightHand
                    {
                        OFFSET -19.34823989868164 0.0 0.0
                        CHANNELS 3 Zrotation Xrotation Yrotation
                        End Site
                        {
                            OFFSET -7.7392964363098145 0.0 0.0
                        }
                    }
                }
            }
        }
    }
}
MOTION
Frames: 4
Frame Time: 0.03333333333333333
0.0009606013773009181 92.68199920654297 -0.0012996111763641238 -11.328084752131865 -3.142421957421076 -41.07518920637936 8.937801654785085 18.683572804946177 -0.42617739143169914 2.9450669823198363 14.702492317933581 -1.0686171444746342 8.827812596100317e-32 -3.1805546814635168e-15 3.1805546814635168e-15 -0.1342480109347095 15.796813178296066 2.1056142595533824 6.430004497868856 20.215837573272758 0.334359873975201 0.0 0.0 2.3854160110976376e-15 0.35155110263692463 23.995347838981075 2.9536046427211926 1.7136616906113977e-07 -1.7124213637353987e-07 0.2283014778363525 7.046931497009688 13.230582571516907 -170.91952817572962 127.47724225829106 -46.36642407594971 -174.10247931654501 -2.956139573713742e-06 6.415314783532891e-07 44.129171041613056 3.1805546814635168e-15 1.7655625192200634e-31 6.3611093629270335e-15 -114.5249381673044 -36.98974194813228 175.2013997255184 -2.88256933652029e-07 -3.8231931642401665e-07 -25.117708971586737 -5.342337941520751e-16 0.0 0.0
0.0017323980573564768 92.69316864013672 -0.004372341092675924 11.423821102292766 7.703289376130276 -76.92645674990445 9.36575958572316 -17.75479768084271 2.3629830970004946 -17.29072434469218 18.80387597059024 3.2927332960019826 7.951386703658792e-16 3.103527865816518e-33 4.472655020808071e-16 -13.545658650027066 -3.29061775431281 -0.940832535277461 4.933722311671704 7.3980330677418085 1.320128669249397 -2.1493592183327674e-15 3.1805546814635176e-15 -1.2563812193867118e-15 -8.341742863360853 -7.494416153566172 -1.3218277063833987 -1.384348628012222e-06 1.1594307850637723e-06 37.82468324355007 -30.075663250507215 21.886756203682225 -142.8892131156173 128.21153702697404 -16.521301385314807 -156.2487441150332 3.1807445267286786e-06 3.889828548746346e-06 100.3778250356284 0.0 0.0 1.5902773407317584e-15 -108.72838354122028 -27.78816572047297 -176.14281232746785 3.743021436944434e-06 1.8138452760247986e-07 -38.399512061085495 4.373262687012335e-15 3.975693351829396e-16 -1.517280289954742e-32
7.587987056467682e-05 92.69048309326172 -0.003613921580836177 -2.1485695395355804 8.953215343104679 -38.42908287544559 6.723625744023622 4.837063757967337 -0.4989706892703557 1.0202681688918942 7.333837203459804 -0.9154546719412493 -2.4828222926532145e-32 -3.975693351829397e-16 -7.156248033292914e-15 0.7417125765096507 -2.1633263203902793 -0.006866545090497633 9.995977956807115 24.32093555293169 -4.301881253597677 -3.180554681463516e-15 -4.4139062980501586e-32 1.590277340731758e-15 3.519464323257895 9.154620782212579 -0.48275631912030026 6.959834983267205e-07 -4.178866191989786e-07 -7.20829927421394 47.81272065240504 21.04244936330826 -118.81889192093094 116.02904661756041 -28.429919480521182 165.1537750574402 5.80884517255132e-07 -4.382357216977472e-06 39.2978833914632 0.0 6.3611093629270335e-15 0.0 -110.11053256758194 -18.071908057368738 165.0684120082363 -5.05961719612048e-06 2.0718500874308987e-06 -115.34682046100288 0.0 6.361109362927033e-15 0.0
4.4938497012481093e-05 92.6923828125 -0.004520096816122532 -3.5092714055461665 10.96666196299508 0.5319268301921257 11.458713374228548 6.86002659333584 0.31418246301414404 4.390555055331826 12.836426580487256 -0.49637447802940554 2.2064143421039306e-32 -6.359556357711475e-15 3.975693351829396e-16 3.996965864070285 -16.2976159760981 -2.7104254921178224 2.2055513503474065 25.706008437330212 2.9570425961684634 7.951386703658791e-16 -3.1060104311167156e-18 -9.939233379573489e-17 5.123848103220365 1.1807932331916786 0.17414655009460928 -7.959516121517056e-08 -1.896891122498577e-07 -22.45914988031757 74.70040269566933 10.750582304804183 -149.57332501032494 104.240907113009 23.716535960794726 -163.79400418686208 -2.2542815483030474e-06 1.0920348240191239e-06 90.71726925627135 0.0 0.0 0.0 -124.66064589472755 -20.157136025042888 163.6752782525462 -2.6852979635911717e-06 -2.1209130909492344e-06 -58.96846312919591 -4.770832022195275e-15 -3.1805546814635168e-15 -1.3241718894150476e-31
